<svg xmlns="http://www.w3.org/2000/svg" viewBox="0 0 125.699 179.332"><g aria-label="zé" fill="#dadae5"><path d="M7.534 60.075q-1.983 1.09-2.577-.199-.496-1.387.991-2.775l9.517-8.724q4.857-4.461 9.318-9.319 1.884-2.379 3.37-2.081 1.488.198 2.083 1.883.396 2.38 1.883 2.578 1.586.099 3.767 1.487 16.357 12.59 9.517 23.098-6.741 10.508-20.52 19.727-.893.595-.794 1.487.1.892 1.19 1.388 5.452 1.784 9.814 4.263.991.396 1.685-.199 8.13-5.65 16.754-9.814 2.577-1.09 3.271.298.694 1.387-1.09 2.379-9.319 4.46-14.771 8.327-1.983 1.09-.1 2.577 7.535 5.651 11.699 13.483 4.262 7.831 4.56 24.188.297 17.15-10.707 31.128-10.904 14.077-22.206 14.077-8.723 0-16.456-8.526Q0 162.281 0 149.394q0-23.792 19.133-42.33 1.586-1.785-.298-2.578-6.543-3.569-15.266-4.857-4.461-.992-.595-3.37 10.905-6.345 19.133-14.672 8.327-8.328 6.146-15.564-2.181-7.237-7.732-8.724-5.552-1.487-12.987 2.776zm16.654 115.688q7.039 0 11.5-7.93 4.46-7.931 2.776-27.46-1.983-21.413-13.582-31.624-1.19-1.19-2.28.1-13.878 16.059-13.977 40.644 0 10.409 3.47 18.34 3.469 7.93 12.093 7.93zM90.834 144.833q-.199-2.379-2.578-3.568-2.28-1.19-3.866-2.38-11.4-7.732-16.159-18.835-4.659-11.202-5.254-23.693-1.19-28.253 15.267-43.023 5.849-5.254 13.482-8.526 7.633-3.37 15.663-5.452 2.478-.496 3.668 2.478l14.275 33.507q.991 2.677-.694 3.37h-.198L83.795 94.475q-1.19.595-.991 1.883 4.857 22.008 16.258 28.253 11.4 6.146 22.701 1.785 1.983-.893 2.478.297.595 1.19-.693 1.784-8.03 4.065-15.366 8.328-7.237 4.262-12.986 8.922-.893.594-2.677.396-1.685-.198-1.685-1.289zm-9.22-56.01q.1.793.694 1.289.595.396 1.487 0l21.116-7.93q1.487-.595.892-2.082L93.709 50.459q-.893-2.181-3.57-.595-5.749 3.37-7.83 15.366-2.083 11.995-.695 23.593zm-4.56-51.152h-3.668l7.93-23.594q3.173-9.319 5.75-11.5Q90.042 0 94.106 0q9.418 0 9.418 7.138 0 4.956-7.534 12.292z"/></g></svg>